<svg width="191" height="289" viewBox="0 0 191 289" fill="none" xmlns="http://www.w3.org/2000/svg">
<mask id="mask0" style="mask-type:alpha" maskUnits="userSpaceOnUse" x="0" y="0" width="191" height="289">
<path d="M0 0H191V289H0V0Z" fill="#C4C4C4"/>
</mask>
<g mask="url(#mask0)">
<path d="M184.347 171.14L150.166 171.157C149.389 171.157 148.644 170.849 148.094 170.3C147.545 169.751 147.235 169.006 147.234 168.229L147.219 134.049C147.218 133.665 147.294 133.284 147.441 132.928C147.588 132.572 147.803 132.249 148.075 131.977C148.347 131.704 148.67 131.488 149.025 131.341C149.381 131.193 149.762 131.117 150.146 131.117L184.327 131.099C185.104 131.099 185.849 131.408 186.399 131.957C186.948 132.507 187.257 133.252 187.257 134.029L187.274 168.21C187.274 168.986 186.966 169.731 186.417 170.281C185.868 170.83 185.123 171.139 184.347 171.14Z" stroke="#593493" stroke-miterlimit="10"/>
<path d="M102.521 171.357C112.139 170.594 121.168 166.425 127.987 159.599C134.806 152.774 138.967 143.74 139.721 134.122C139.751 133.715 139.696 133.306 139.561 132.921C139.425 132.537 139.212 132.184 138.934 131.885C138.656 131.586 138.319 131.348 137.945 131.186C137.57 131.023 137.167 130.939 136.759 130.939L102.284 130.957C101.895 130.957 101.511 131.033 101.152 131.181C100.793 131.33 100.467 131.548 100.192 131.823C99.9178 132.097 99.7002 132.424 99.552 132.783C99.4037 133.142 99.3277 133.526 99.3284 133.915L99.3459 168.39C99.3445 168.798 99.4273 169.201 99.5891 169.576C99.751 169.95 99.9883 170.287 100.286 170.566C100.584 170.844 100.937 171.058 101.321 171.195C101.706 171.331 102.114 171.386 102.521 171.357V171.357Z" stroke="#593493" stroke-miterlimit="10"/>
<path d="M71.4114 82.0225C77.0537 82.0225 82.465 84.2639 86.4547 88.2536C90.4445 92.2433 92.6859 97.6546 92.6859 103.297C92.6859 108.934 90.4466 114.34 86.4606 118.326C82.4746 122.312 77.0684 124.551 71.4314 124.551V124.551C68.6357 124.552 65.8673 124.001 63.2846 122.931C60.7019 121.861 58.3554 120.292 56.3794 118.314C54.4033 116.336 52.8365 113.989 51.7684 111.405C50.7002 108.821 50.1518 106.053 50.1544 103.257V103.257C50.1597 97.623 52.4017 92.2215 56.3877 88.2398C60.3736 84.2581 65.7774 82.0218 71.4114 82.0225V82.0225Z" stroke="#593493" stroke-miterlimit="10"/>
<path d="M23.5588 172.272C17.9674 172.272 12.6051 170.051 8.65148 166.097C4.69781 162.143 2.47666 156.781 2.47666 151.19V151.19C2.47666 145.604 4.69544 140.248 8.64489 136.298C12.5943 132.349 17.9509 130.13 23.5363 130.13H23.5588C29.1441 130.13 34.5007 132.349 38.4502 136.298C42.3996 140.248 44.6184 145.604 44.6184 151.19V151.212C44.6184 156.797 42.3996 162.154 38.4502 166.103C34.5007 170.053 29.1441 172.272 23.5588 172.272V172.272Z" stroke="#593493" stroke-miterlimit="10"/>
<path d="M6.47133 178.904L40.6514 178.887C41.0361 178.887 41.4171 178.962 41.7726 179.109C42.1281 179.256 42.4512 179.472 42.7233 179.744C42.9955 180.015 43.2113 180.338 43.3586 180.694C43.5059 181.049 43.5817 181.43 43.5817 181.815L43.5992 215.995C43.5992 216.772 43.2908 217.516 42.7418 218.066C42.1928 218.615 41.4481 218.924 40.6714 218.925L6.49131 218.943C6.1066 218.943 5.72561 218.867 5.3701 218.72C5.01459 218.573 4.69152 218.358 4.41938 218.086C4.14724 217.814 3.93135 217.491 3.78405 217.136C3.63676 216.78 3.56095 216.399 3.56095 216.015L3.54346 181.835C3.5428 181.45 3.61807 181.069 3.76495 180.713C3.91182 180.357 4.12743 180.034 4.3994 179.762C4.67138 179.49 4.99438 179.274 5.34991 179.127C5.70545 178.98 6.08654 178.904 6.47133 178.904V178.904Z" stroke="#593493" stroke-miterlimit="10"/>
<path d="M7.96032 225.655L39.8421 244.042C40.2871 244.299 40.6567 244.669 40.9136 245.114C41.1705 245.56 41.3057 246.065 41.3057 246.579C41.3057 247.093 41.1705 247.598 40.9136 248.043C40.6567 248.488 40.2871 248.858 39.8421 249.116L7.98031 267.525C7.53534 267.782 7.0304 267.918 6.51629 267.918C6.00219 267.919 5.49703 267.784 5.05163 267.527C4.60623 267.27 4.2363 266.901 3.97902 266.456C3.72174 266.011 3.58619 265.506 3.58601 264.991L3.56604 228.188C3.56698 227.674 3.70299 227.17 3.96045 226.725C4.21791 226.281 4.58775 225.912 5.0329 225.655C5.47804 225.398 5.98283 225.263 6.49664 225.263C7.01045 225.263 7.51522 225.398 7.96032 225.655V225.655Z" stroke="#593493" stroke-miterlimit="10"/>
<path d="M167.284 225.435C172.875 225.435 178.238 227.657 182.191 231.61C186.145 235.564 188.366 240.926 188.366 246.518V246.518C188.366 252.103 186.147 257.459 182.198 261.409C178.249 265.358 172.892 267.577 167.307 267.577C161.715 267.577 156.353 265.356 152.399 261.402C148.446 257.449 146.224 252.086 146.224 246.495V246.495C146.224 240.91 148.443 235.553 152.393 231.604C156.342 227.654 161.699 225.435 167.284 225.435Z" stroke="#593493" stroke-miterlimit="10"/>
<path d="M88.594 266.565L54.4139 266.583C53.6372 266.583 52.8922 266.274 52.3427 265.725C51.7932 265.176 51.4842 264.432 51.4835 263.655L51.4661 229.475C51.4661 228.698 51.7745 227.953 52.3235 227.404C52.8725 226.854 53.6172 226.545 54.3939 226.545L88.574 226.527C88.9588 226.527 89.3399 226.602 89.6956 226.749C90.0512 226.896 90.3744 227.112 90.6468 227.384C90.9191 227.655 91.1353 227.978 91.2828 228.334C91.4304 228.689 91.5065 229.07 91.5068 229.455L91.5218 263.635C91.5225 264.02 91.4472 264.401 91.3003 264.757C91.1535 265.112 90.9379 265.435 90.6659 265.708C90.3939 265.98 90.0709 266.196 89.7154 266.343C89.3598 266.49 88.9788 266.566 88.594 266.565V266.565Z" stroke="#593493" stroke-miterlimit="10"/>
<path d="M7.86273 34.4396L39.7445 52.8261C40.1902 53.0829 40.5604 53.4526 40.8177 53.898C41.0751 54.3433 41.2106 54.8487 41.2106 55.363C41.2106 55.8774 41.0751 56.3827 40.8177 56.8281C40.5604 57.2735 40.1902 57.6431 39.7445 57.8999L7.88272 76.3165C7.43768 76.5746 6.93249 76.7109 6.41801 76.7117C5.90354 76.7124 5.39796 76.5775 4.95218 76.3207C4.5064 76.0639 4.13615 75.6941 3.87874 75.2487C3.62134 74.8032 3.48586 74.2978 3.48593 73.7834L3.46594 36.9802C3.46531 36.4654 3.60032 35.9595 3.85737 35.5135C4.11442 35.0674 4.48445 34.697 4.93019 34.4394C5.37594 34.1818 5.88167 34.0462 6.39648 34.0463C6.9113 34.0463 7.41701 34.182 7.86273 34.4396V34.4396Z" stroke="#593493" stroke-miterlimit="10"/>
<path d="M88.499 75.3574L54.319 75.3748C53.9341 75.3751 53.553 75.2997 53.1973 75.1528C52.8417 75.0058 52.5185 74.7902 52.2461 74.5183C51.9738 74.2464 51.7577 73.9236 51.6101 73.5682C51.4625 73.2128 51.3864 72.8318 51.3861 72.447L51.3711 38.2669C51.3708 37.8822 51.4463 37.5012 51.5933 37.1457C51.7402 36.7902 51.9559 36.4671 52.2278 36.195C52.4997 35.9228 52.8226 35.7069 53.1779 35.5596C53.5333 35.4123 53.9142 35.3365 54.299 35.3365L88.479 35.3191C89.2558 35.3191 90.0007 35.6274 90.5502 36.1764C91.0997 36.7254 91.4087 37.4702 91.4094 38.2469L91.4269 72.427C91.4269 73.2037 91.1185 73.9487 90.5694 74.4982C90.0204 75.0477 89.2757 75.3567 88.499 75.3574V75.3574Z" stroke="#593493" stroke-miterlimit="10"/>
<path d="M40.624 123.312L6.43399 123.33C6.04917 123.33 5.66805 123.255 5.3124 123.108C4.95675 122.961 4.63352 122.745 4.36118 122.473C4.08883 122.201 3.87272 121.879 3.72515 121.523C3.57758 121.168 3.50146 120.787 3.50113 120.402L3.48364 86.2219C3.48363 85.8354 3.56008 85.4527 3.70859 85.0958C3.8571 84.739 4.07475 84.415 4.34898 84.1427C4.62321 83.8703 4.94862 83.6549 5.30645 83.5088C5.66429 83.3627 6.04749 83.2889 6.43399 83.2915L40.6116 83.274C40.9964 83.2737 41.3775 83.3492 41.7331 83.4961C42.0888 83.6431 42.412 83.8587 42.6844 84.1305C42.9567 84.4024 43.1728 84.7253 43.3204 85.0807C43.468 85.4361 43.5441 85.8171 43.5444 86.2019L43.5619 120.382C43.5619 120.767 43.4858 121.149 43.3381 121.505C43.1904 121.861 42.9738 122.184 42.7009 122.457C42.428 122.729 42.1041 122.945 41.7477 123.091C41.3913 123.238 41.0095 123.313 40.624 123.312V123.312Z" stroke="#593493" stroke-miterlimit="10"/>
<path d="M119.354 177.795C124.945 177.795 130.308 180.016 134.261 183.97C138.215 187.924 140.436 193.286 140.436 198.877C140.436 201.643 139.891 204.381 138.833 206.936C137.775 209.492 136.224 211.813 134.268 213.769C132.312 215.724 129.991 217.276 127.436 218.334C124.881 219.392 122.142 219.937 119.376 219.937H119.354C113.769 219.937 108.412 217.718 104.463 213.769C100.513 209.819 98.2944 204.463 98.2944 198.877V198.855C98.2944 193.269 100.513 187.913 104.463 183.963C108.412 180.014 113.769 177.795 119.354 177.795Z" stroke="#593493" stroke-miterlimit="10"/>
<path d="M103.758 225.6L135.64 243.984C136.085 244.241 136.455 244.611 136.713 245.057C136.97 245.502 137.105 246.008 137.105 246.522C137.105 247.037 136.97 247.542 136.713 247.988C136.455 248.434 136.085 248.803 135.64 249.061L103.778 267.477C103.332 267.735 102.827 267.87 102.313 267.87C101.798 267.871 101.293 267.736 100.847 267.479C100.402 267.222 100.032 266.852 99.7743 266.407C99.5169 265.961 99.3813 265.456 99.381 264.942L99.3635 228.138C99.3628 227.624 99.4977 227.118 99.7547 226.672C100.012 226.227 100.381 225.856 100.827 225.599C101.273 225.342 101.778 225.206 102.293 225.207C102.807 225.207 103.312 225.343 103.758 225.6V225.6Z" stroke="#593493" stroke-miterlimit="10"/>
<path d="M151.633 177.91L183.515 196.297C183.96 196.553 184.331 196.923 184.588 197.369C184.845 197.814 184.981 198.319 184.981 198.834C184.981 199.348 184.845 199.853 184.588 200.299C184.331 200.744 183.96 201.114 183.515 201.37L151.653 219.787C151.208 220.044 150.703 220.18 150.189 220.18C149.674 220.181 149.169 220.046 148.724 219.789C148.278 219.532 147.908 219.163 147.65 218.718C147.393 218.273 147.257 217.768 147.256 217.254L147.239 180.451C147.238 179.936 147.372 179.43 147.629 178.984C147.886 178.538 148.255 178.167 148.701 177.91C149.147 177.652 149.652 177.516 150.167 177.516C150.682 177.516 151.187 177.652 151.633 177.91V177.91Z" stroke="#593493" stroke-miterlimit="10"/>
<path d="M103.663 34.3924L135.542 52.779C135.988 53.0358 136.358 53.4055 136.615 53.8508C136.873 54.2962 137.008 54.8015 137.008 55.3159C137.008 55.8303 136.873 56.3356 136.615 56.7809C136.358 57.2263 135.988 57.596 135.542 57.8528L103.683 76.2643C103.238 76.5219 102.733 76.6577 102.218 76.658C101.704 76.6583 101.199 76.5231 100.753 76.2661C100.308 76.009 99.9377 75.6392 99.6806 75.1938C99.4235 74.7483 99.2883 74.243 99.2885 73.7287L99.2686 36.928C99.2691 36.414 99.4048 35.9091 99.662 35.4641C99.9193 35.0191 100.289 34.6497 100.734 34.3928C101.18 34.1359 101.685 34.0006 102.199 34.0005C102.713 34.0004 103.218 34.1356 103.663 34.3924V34.3924Z" stroke="#593493" stroke-miterlimit="10"/>
<path d="M184.304 75.3099L150.124 75.3274C149.347 75.3274 148.602 75.019 148.053 74.47C147.503 73.921 147.194 73.1763 147.194 72.3995L147.176 38.2195C147.176 37.4427 147.485 36.6978 148.034 36.1483C148.583 35.5988 149.327 35.2898 150.104 35.2891L184.284 35.2716C184.669 35.271 185.05 35.3463 185.406 35.4931C185.761 35.64 186.085 35.8556 186.357 36.1276C186.629 36.3995 186.845 36.7226 186.992 37.0781C187.139 37.4336 187.215 37.8147 187.215 38.1995L187.232 72.3795C187.232 72.7642 187.157 73.1453 187.01 73.5008C186.863 73.8563 186.647 74.1793 186.375 74.4515C186.103 74.7236 185.781 74.9395 185.425 75.0868C185.07 75.2341 184.689 75.3099 184.304 75.3099Z" stroke="#593493" stroke-miterlimit="10"/>
<path d="M151.578 82.2997L183.46 100.684C183.905 100.941 184.276 101.31 184.533 101.756C184.79 102.201 184.926 102.706 184.926 103.221C184.926 103.735 184.79 104.24 184.533 104.686C184.276 105.131 183.905 105.501 183.46 105.758L151.598 124.177C151.153 124.434 150.647 124.57 150.133 124.57C149.618 124.57 149.113 124.435 148.667 124.178C148.222 123.921 147.852 123.551 147.594 123.106C147.337 122.661 147.201 122.155 147.201 121.641L147.184 84.8379C147.183 84.3234 147.318 83.8177 147.575 83.3719C147.832 82.9261 148.201 82.5559 148.647 82.2985C149.093 82.0412 149.598 81.9058 150.113 81.906C150.627 81.9062 151.133 82.042 151.578 82.2997V82.2997Z" stroke="#593493" stroke-miterlimit="10"/>
<path d="M103.728 82.1299L135.902 100.684C136.351 100.944 136.724 101.317 136.983 101.766C137.243 102.216 137.379 102.726 137.379 103.244C137.379 103.763 137.243 104.273 136.983 104.723C136.724 105.172 136.351 105.545 135.902 105.805L103.745 124.394C103.296 124.654 102.786 124.79 102.267 124.79C101.748 124.79 101.238 124.654 100.788 124.394C100.338 124.135 99.9649 123.762 99.7053 123.312C99.4456 122.862 99.3088 122.353 99.3086 121.833L99.2911 84.693C99.2909 84.1737 99.4274 83.6634 99.6868 83.2136C99.9463 82.7637 100.32 82.3901 100.769 82.1303C101.219 81.8705 101.729 81.7337 102.249 81.7336C102.768 81.7336 103.278 81.8702 103.728 82.1299V82.1299Z" stroke="#593493" stroke-miterlimit="10"/>
<path d="M89.3734 171.612L54.3989 171.629C54.0105 171.63 53.6258 171.554 53.2668 171.406C52.9078 171.258 52.5816 171.04 52.3068 170.765C52.0321 170.491 51.8142 170.165 51.6656 169.806C51.5171 169.447 51.4408 169.063 51.4411 168.674L51.4236 133.7C51.4238 133.115 51.5972 132.544 51.9219 132.058C52.2467 131.572 52.7081 131.193 53.248 130.969C53.788 130.745 54.3822 130.686 54.9556 130.799C55.529 130.913 56.056 131.193 56.4699 131.606L91.4444 166.558C91.8584 166.97 92.141 167.496 92.2567 168.069C92.3723 168.641 92.3159 169.235 92.0943 169.776C91.8728 170.316 91.4962 170.779 91.012 171.106C90.5277 171.433 89.9576 171.609 89.3734 171.612V171.612Z" stroke="#593493" stroke-miterlimit="10"/>
<path d="M88.9013 178.684H54.4089C52.7753 178.684 51.451 180.009 51.451 181.642V216.135C51.451 217.768 52.7753 219.092 54.4089 219.092H88.9013C90.5348 219.092 91.8591 217.768 91.8591 216.135V181.642C91.8591 180.009 90.5348 178.684 88.9013 178.684Z" stroke="#593493" stroke-miterlimit="10"/>
</g>
</svg>
