<svg width="300" height="135" viewBox="0 0 300 135" fill="none" xmlns="http://www.w3.org/2000/svg">
<path d="M11.152 6.48C13.3053 6.48 15.674 6.70667 18.258 7.16C18.666 7.296 18.87 7.5 18.87 7.772V10.526C18.87 10.934 18.6547 11.138 18.224 11.138H10.166C8.08067 11.138 7.038 11.8747 7.038 13.348V13.824C7.038 15.0027 7.70667 15.8527 9.044 16.374L15.402 18.856C17.102 19.536 18.3147 20.3747 19.04 21.372C19.7653 22.3693 20.128 23.8087 20.128 25.69V26.642C20.128 28.954 19.312 30.62 17.68 31.64C16.0707 32.66 13.6227 33.17 10.336 33.17C7.72933 33.17 4.93 32.932 1.938 32.456C1.55267 32.3427 1.36 32.0933 1.36 31.708V29.124C1.36 28.716 1.57533 28.512 2.006 28.512H11.662C13.7247 28.512 14.756 27.8093 14.756 26.404V25.962C14.756 25.2367 14.5747 24.67 14.212 24.262C13.8493 23.854 13.2147 23.48 12.308 23.14L5.678 20.658C4.25 20.114 3.21867 19.3093 2.584 18.244C1.94933 17.1787 1.632 15.6713 1.632 13.722V12.974C1.632 10.6393 2.39133 8.97333 3.91 7.976C5.45133 6.97867 7.86533 6.48 11.152 6.48ZM31.382 13.79C33.2633 13.79 34.7253 13.9373 35.768 14.232C36.8333 14.504 37.6947 15.014 38.352 15.762C39.0093 16.4873 39.4513 17.428 39.678 18.584C39.9273 19.74 40.052 21.372 40.052 23.48C40.052 27.356 39.4853 29.9513 38.352 31.266C37.2187 32.5353 34.8953 33.17 31.382 33.17C27.8687 33.17 25.5453 32.5353 24.412 31.266C23.2787 29.9513 22.712 27.356 22.712 23.48C22.712 19.5813 23.2787 16.9973 24.412 15.728C25.5453 14.436 27.8687 13.79 31.382 13.79ZM34.34 19.196C33.9093 18.4933 32.9233 18.142 31.382 18.142C29.8407 18.142 28.8547 18.4933 28.424 19.196C27.9933 19.8533 27.778 21.2813 27.778 23.48C27.778 25.656 27.9933 27.0953 28.424 27.798C28.8547 28.478 29.8407 28.818 31.382 28.818C32.9233 28.818 33.9093 28.478 34.34 27.798C34.7933 27.0727 35.02 25.6333 35.02 23.48C35.02 21.3267 34.7933 19.8987 34.34 19.196ZM62.4819 13.756C65.2246 13.756 67.1172 14.266 68.1599 15.286C69.2252 16.2833 69.7579 18.1873 69.7579 20.998L69.7239 32.456C69.7239 32.8187 69.5539 33 69.2139 33H65.2019C64.8619 33 64.6919 32.8187 64.6919 32.456V23.242C64.6692 22.29 64.6466 21.5873 64.6239 21.134C64.6012 20.658 64.5332 20.1933 64.4199 19.74C64.3066 19.2867 64.2046 18.992 64.1139 18.856C64.0459 18.72 63.8532 18.584 63.5359 18.448C63.2186 18.2893 62.9466 18.21 62.7199 18.21C62.4932 18.1873 62.0739 18.1647 61.4619 18.142C60.4872 18.142 59.5692 18.21 58.7079 18.346C59.0026 19.2073 59.1499 20.4087 59.1499 21.95L59.1159 32.456C59.1159 32.8187 58.9572 33 58.6399 33H54.5939C54.2766 33 54.1179 32.8187 54.1179 32.456V22.086C54.1179 20.25 53.8912 19.128 53.4379 18.72C53.1659 18.4707 52.8599 18.312 52.5199 18.244C52.2026 18.176 51.6472 18.142 50.8539 18.142H48.5419V32.456C48.5419 32.8187 48.3719 33 48.0319 33H44.0199C43.6799 33 43.5099 32.8187 43.5099 32.456V14.878C43.5099 14.606 43.6572 14.436 43.9519 14.368C45.7652 13.9827 47.9412 13.79 50.4799 13.79C53.0186 13.79 55.0472 14.1527 56.5659 14.878C58.4926 14.13 60.4646 13.756 62.4819 13.756ZM81.7843 13.79C83.6657 13.79 85.1277 13.9373 86.1703 14.232C87.2357 14.504 88.097 15.014 88.7543 15.762C89.4117 16.4873 89.8537 17.428 90.0803 18.584C90.3297 19.74 90.4543 21.372 90.4543 23.48C90.4543 27.356 89.8877 29.9513 88.7543 31.266C87.621 32.5353 85.2977 33.17 81.7843 33.17C78.271 33.17 75.9477 32.5353 74.8143 31.266C73.681 29.9513 73.1143 27.356 73.1143 23.48C73.1143 19.5813 73.681 16.9973 74.8143 15.728C75.9477 14.436 78.271 13.79 81.7843 13.79ZM84.7423 19.196C84.3117 18.4933 83.3257 18.142 81.7843 18.142C80.243 18.142 79.257 18.4933 78.8263 19.196C78.3957 19.8533 78.1803 21.2813 78.1803 23.48C78.1803 25.656 78.3957 27.0953 78.8263 27.798C79.257 28.478 80.243 28.818 81.7843 28.818C83.3257 28.818 84.3117 28.478 84.7423 27.798C85.1957 27.0727 85.4223 25.6333 85.4223 23.48C85.4223 21.3267 85.1957 19.8987 84.7423 19.196ZM101.222 13.79C103.172 13.79 104.962 13.9373 106.594 14.232C106.957 14.3227 107.138 14.504 107.138 14.776V17.36C107.138 17.7227 106.946 17.904 106.56 17.904H100.44C99.1029 17.904 98.4343 18.312 98.4343 19.128V19.468C98.4343 20.148 98.9783 20.6693 100.066 21.032L104.418 22.562C105.733 23.0153 106.651 23.65 107.172 24.466C107.716 25.2593 107.988 26.3247 107.988 27.662V28.206C107.988 29.9967 107.388 31.2773 106.186 32.048C105.008 32.796 103.194 33.17 100.746 33.17C98.1169 33.17 95.7709 33.0567 93.7083 32.83C93.3229 32.83 93.1303 32.66 93.1303 32.32V29.566C93.1303 29.226 93.3229 29.056 93.7083 29.056H100.678C101.585 29.056 102.197 28.9767 102.514 28.818C102.854 28.6593 103.024 28.3533 103.024 27.9V27.594C103.024 27.254 102.888 26.9707 102.616 26.744C102.367 26.4947 101.88 26.2453 101.154 25.996L96.9723 24.5C94.6603 23.7293 93.5043 22.0067 93.5043 19.332V18.686C93.5043 16.9633 94.1389 15.7167 95.4083 14.946C96.6776 14.1753 98.6156 13.79 101.222 13.79ZM125.189 13.79C128.363 13.79 130.527 14.266 131.683 15.218C132.839 16.17 133.417 17.6433 133.417 19.638V31.402C133.417 31.946 133.168 32.2973 132.669 32.456C130.607 32.932 128.034 33.17 124.951 33.17C123.433 33.17 122.265 33.1133 121.449 33C120.656 32.8867 119.897 32.6373 119.171 32.252C117.811 31.504 117.12 29.8493 117.097 27.288C117.12 25.112 117.675 23.6387 118.763 22.868C119.874 22.0973 121.642 21.712 124.067 21.712H128.385V20.488C128.385 18.924 127.32 18.142 125.189 18.142H119.035C118.854 18.142 118.729 18.108 118.661 18.04C118.593 17.972 118.559 17.836 118.559 17.632V14.844C118.559 14.6627 118.582 14.538 118.627 14.47C118.695 14.402 118.831 14.3453 119.035 14.3C120.781 13.96 122.832 13.79 125.189 13.79ZM128.385 28.75V24.976H124.475C123.591 24.976 122.968 25.1347 122.605 25.452C122.265 25.7467 122.095 26.268 122.095 27.016C122.095 27.8093 122.299 28.3533 122.707 28.648C123.138 28.9427 123.897 29.09 124.985 29.09C126.481 29.09 127.615 28.9767 128.385 28.75Z" fill="#593493"/>
<g clip-path="url(#clip0)">
<path d="M142.364 79.4522C142.364 101.368 134.344 105.814 110.597 105.814H97.1534V132.373C97.1534 133.78 96.8252 134.109 95.5268 134.109H81.7549C80.4518 134.109 80.1284 133.785 80.1284 132.373V54.286C80.1284 53.09 80.4518 52.879 81.7549 52.7664C91.294 51.8988 101.705 51.5705 110.597 51.5705C134.344 51.5705 142.364 57.7706 142.364 79.4522ZM97.1534 66.4329V92.6966H108.872C121.772 92.6966 125.138 90.9613 125.138 79.8977C125.138 69.0452 121.772 66.4423 108.872 66.4423L97.1534 66.4329Z" fill="#593493"/>
<path d="M182.002 74.0071C183.192 74.3307 183.736 74.7669 183.736 76.1739V85.0847C183.736 86.1728 183.085 86.7122 181.889 86.7122H171.699C166.074 86.7122 164.11 87.5798 164.11 92.2463V132.387C164.11 133.579 163.566 134.123 162.483 134.123H149.574C148.491 134.123 147.947 133.579 147.947 132.387V88.1098C147.947 74.4386 157.706 72.8159 167.574 72.8159C170.724 72.8159 178.205 73.1395 182.002 74.0071Z" fill="#593493"/>
<path d="M242.855 103.192C242.855 127.922 237.755 134.108 215.198 134.108C192.755 134.108 187.542 127.922 187.542 103.192C187.542 78.3357 192.75 72.2716 215.198 72.2716C237.731 72.2716 242.855 78.3451 242.855 103.192ZM203.709 103.192C203.709 116.859 205.336 120.222 215.203 120.222C225.178 120.222 226.805 116.859 226.805 103.192C226.805 89.5259 225.178 86.1585 215.203 86.1585C205.312 86.1585 203.686 89.5212 203.686 103.192H203.709Z" fill="#593493"/>
<path d="M296.761 73.3553C297.952 73.3553 298.603 73.8993 298.603 74.9827V82.3599C298.584 83.1127 298.317 83.8381 297.844 84.4235L271.172 120.222H298.167C299.358 120.222 300.009 120.766 300.009 121.849V132.373C300.009 133.565 299.358 134.109 298.167 134.109H249.797C248.498 134.109 247.847 133.565 247.847 132.373V125.306C247.851 124.552 248.12 123.823 248.606 123.247L276.136 86.9186H250.992C249.689 86.9186 249.145 86.3745 249.145 85.2912V74.9733C249.145 73.8899 249.689 73.3459 250.992 73.3459L296.761 73.3553Z" fill="#593493"/>
<path d="M34.1438 45.2718L56.0719 57.9346C56.3774 58.1125 56.6309 58.3675 56.807 58.674C56.9832 58.9806 57.076 59.328 57.076 59.6816C57.076 60.0352 56.9832 60.3827 56.807 60.6892C56.6309 60.9958 56.3774 61.2507 56.0719 61.4286L34.1438 74.0915C33.8375 74.2684 33.4901 74.3616 33.1364 74.3617C32.7828 74.3617 32.4353 74.2687 32.129 74.0919C31.8226 73.9151 31.5681 73.6608 31.3911 73.3545C31.214 73.0482 31.1207 72.7007 31.1204 72.3468V47.0211C31.1213 46.6674 31.2149 46.3202 31.392 46.014C31.569 45.7079 31.8233 45.4536 32.1293 45.2765C32.4353 45.0995 32.7824 45.0058 33.1359 45.005C33.4894 45.0042 33.8369 45.0962 34.1438 45.2718Z" fill="#593493"/>
<path d="M26.2454 104.252H2.74224C2.47715 104.253 2.21454 104.201 1.96945 104.1C1.72436 103.999 1.50161 103.851 1.31394 103.663C1.12628 103.476 0.977392 103.254 0.875804 103.009C0.774216 102.764 0.721923 102.501 0.721924 102.236V78.7158C0.72698 78.3186 0.848867 77.9318 1.07236 77.6035C1.29586 77.2752 1.61107 77.0201 1.97861 76.87C2.34615 76.7199 2.74974 76.6815 3.13898 76.7595C3.52822 76.8376 3.88586 77.0286 4.16724 77.3088L27.6985 100.81C27.982 101.094 28.1745 101.456 28.2514 101.849C28.3283 102.243 28.286 102.651 28.13 103.021C27.9739 103.39 27.7113 103.705 27.3756 103.924C27.0399 104.144 26.6463 104.258 26.2454 104.252Z" fill="#FF7F00"/>
<path d="M26.2501 106.546H2.73755C1.62435 106.546 0.721924 107.449 0.721924 108.563V132.088C0.721924 133.202 1.62435 134.104 2.73755 134.104H26.2501C27.3633 134.104 28.2657 133.202 28.2657 132.088V108.563C28.2657 107.449 27.3633 106.546 26.2501 106.546Z" fill="#FF7F00"/>
<path d="M14.4984 45.1826H14.4938C6.48907 45.1826 0 51.675 0 59.6839V59.6885C0 67.6974 6.48907 74.1898 14.4938 74.1898H14.4984C22.5031 74.1898 28.9922 67.6974 28.9922 59.6885V59.6839C28.9922 51.675 22.5031 45.1826 14.4984 45.1826Z" fill="#FF7F00"/>
<path d="M32.7377 104.248C39.2921 103.731 45.4472 100.891 50.0971 96.2408C54.7471 91.5902 57.5869 85.4329 58.1064 78.8753C58.1271 78.5979 58.0903 78.3192 57.9983 78.0567C57.9064 77.7942 57.7613 77.5535 57.5721 77.3497C57.3829 77.1458 57.1537 76.9833 56.8988 76.8722C56.6439 76.761 56.3689 76.7037 56.0908 76.7039H32.583C32.0484 76.7039 31.5358 76.9163 31.1577 77.2945C30.7797 77.6727 30.5674 78.1857 30.5674 78.7205V102.231C30.5673 102.509 30.6245 102.785 30.7356 103.04C30.8467 103.295 31.0091 103.524 31.2129 103.713C31.4166 103.903 31.6571 104.048 31.9195 104.14C32.1819 104.232 32.4604 104.269 32.7377 104.248Z" fill="#FF7F00"/>
</g>
<defs>
<clipPath id="clip0">
<rect width="300" height="89.1089" fill="white" transform="translate(0 44.9999)"/>
</clipPath>
</defs>
</svg>
