<svg width="26" height="26" viewBox="0 0 26 26" fill="none" xmlns="http://www.w3.org/2000/svg">
<path d="M17.1986 1.964C16.6864 2.01196 16.2101 2.25317 15.8634 2.64032C15.5167 3.02746 15.3244 3.53261 15.3244 4.05667V10.2341C15.3244 10.4874 15.2256 10.7304 15.0498 10.9095C14.8739 11.0887 14.6354 11.1893 14.3867 11.1893C12.5825 11.1893 11.3146 11.9383 10.3769 13.0846C9.41166 14.2666 8.78275 15.8943 8.3889 17.6151C7.99755 19.3257 7.85502 21.049 7.81251 22.3558C7.7983 22.7729 7.7933 23.1904 7.7975 23.6078H16.5747V22.6525C16.5747 21.8927 16.2785 21.164 15.7512 20.6265C15.2239 20.0891 14.5087 19.7871 13.7628 19.7867H12.1999C11.9512 19.7867 11.7127 19.6861 11.5368 19.5069C11.3609 19.3278 11.2621 19.0848 11.2621 18.8315C11.2621 18.5781 11.3609 18.3351 11.5368 18.156C11.7127 17.9768 11.9512 17.8762 12.1999 17.8762H13.7628C14.3783 17.8764 14.9878 18 15.5565 18.2402C16.1251 18.4803 16.6418 18.8322 17.0769 19.2757C17.5121 19.7192 17.8572 20.2457 18.0926 20.8251C18.328 21.4045 18.4491 22.0255 18.449 22.6525V23.6078H19.3867C19.6354 23.6078 19.8739 23.5071 20.0498 23.328C20.2256 23.1489 20.3244 22.9059 20.3244 22.6525V9.91564C20.3244 9.66273 20.4229 9.42014 20.5982 9.24107C20.7735 9.06199 21.0114 8.96105 21.2597 8.96037H21.8923C22.1709 8.96033 22.4443 8.88447 22.6844 8.74063C22.9245 8.5968 23.1225 8.39021 23.2579 8.14227C23.3933 7.89432 23.4612 7.61401 23.4546 7.33036C23.4479 7.0467 23.367 6.77 23.2202 6.5289L22.445 5.25522C22.3049 5.02522 22.1096 4.8354 21.8775 4.70369C21.6453 4.57197 21.3841 4.50272 21.1184 4.50247H18.1351C17.8864 4.50247 17.6479 4.40182 17.472 4.22267C17.2962 4.04353 17.1974 3.80055 17.1974 3.5472L17.1986 1.964ZM5.92327 23.6078C5.91952 23.2461 5.92202 22.8003 5.93828 22.2921C5.98329 20.9127 6.13458 19.0544 6.56344 17.182C6.98855 15.3199 7.70748 13.3661 8.93779 11.8618C10.0281 10.5283 11.5072 9.56792 13.4514 9.33357V4.05667C13.4514 2.99348 13.8657 1.97375 14.6032 1.22148C15.3408 0.469206 16.3413 0.0459058 17.3849 0.0445557C18.3177 0.0445557 19.0729 0.813863 19.0729 1.76403V2.59193H21.1184C22.3062 2.59193 23.4115 3.21859 24.0379 4.24773L24.8131 5.52142C26.1784 7.76693 24.7081 10.6416 22.1962 10.8582V22.6525C22.1962 23.4119 21.9003 24.1403 21.3735 24.6776C20.8467 25.2149 20.1322 25.5173 19.3867 25.5183H5.07431C4.14882 25.5186 3.24342 25.2434 2.46948 24.7264C1.69554 24.2094 1.0868 23.4733 0.718153 22.6085C0.349501 21.7438 0.23701 20.7881 0.394515 19.8591C0.552021 18.93 0.972654 18.0682 1.60468 17.3795L3.02379 15.8294C3.69955 15.0911 4.06768 14.1145 4.05066 13.1053C4.03363 12.096 3.63278 11.1329 2.93251 10.4187L1.54091 8.99859C1.37527 8.8175 1.28509 8.57799 1.28938 8.33051C1.29366 8.08303 1.39208 7.8469 1.56389 7.67188C1.7357 7.49686 1.96749 7.39661 2.21043 7.39224C2.45337 7.38787 2.68848 7.47974 2.86625 7.64848L4.2591 9.06736C5.30359 10.1314 5.90171 11.567 5.92737 13.0716C5.95302 14.5761 5.40422 16.032 4.39664 17.1324L2.97628 18.6824C2.59501 19.0997 2.34155 19.6213 2.24696 20.1831C2.15237 20.745 2.22075 21.3228 2.44374 21.8456C2.66672 22.3685 3.03461 22.8137 3.50231 23.1267C3.97001 23.4397 4.51721 23.6069 5.07681 23.6078H5.92327Z" fill="white"/>
</svg>
