<svg width="28" height="28" viewBox="0 0 28 28" fill="none" xmlns="http://www.w3.org/2000/svg">
<path d="M9.35861 9.96039H19.3612H9.35861ZM9.35861 14.4183H16.2354H9.35861Z" fill="white"/>
<path d="M9.35861 9.96039H19.3612M9.35861 14.4183H16.2354" stroke="white" stroke-width="1.5" stroke-linecap="round"/>
<path d="M0.918961 11.8709C0.918961 12.1243 1.01776 12.3672 1.19362 12.5464C1.36948 12.7255 1.608 12.8262 1.8567 12.8262C2.1054 12.8262 2.34392 12.7255 2.51978 12.5464C2.69564 12.3672 2.79444 12.1243 2.79444 11.8709H0.918961ZM3.19954 18.3998C3.10437 18.1657 2.92181 17.9797 2.69202 17.8828C2.46223 17.7858 2.20403 17.7858 1.97423 17.8827C1.74443 17.9797 1.56184 18.1656 1.46664 18.3997C1.37145 18.6338 1.37143 18.8968 1.4666 19.1309L3.19954 18.3998ZM16.5254 26.2254L17.2031 25.0587L15.5902 24.0856L14.9113 25.2523L16.5254 26.2254ZM11.5167 25.0587L12.1943 26.2254L13.8072 25.2523L13.1308 24.0856L11.5167 25.0587ZM14.9113 25.2523C14.8528 25.3476 14.7716 25.4261 14.6751 25.4806C14.5786 25.5351 14.4702 25.5637 14.3599 25.5637C14.2496 25.5637 14.1411 25.5351 14.0447 25.4806C13.9482 25.4261 13.8669 25.3476 13.8085 25.2523L12.1943 26.2254C13.1608 27.8901 15.5577 27.8901 16.5254 26.2254L14.9125 25.2523H14.9113ZM12.4844 1.99983H16.2354V0.089295H12.4844V1.99983ZM25.9253 11.8709V13.1446H27.8008V11.8709H25.9253ZM9.11229 21.7318C7.54189 21.7038 6.71919 21.6019 6.07402 21.3293L5.35759 23.0947C6.3641 23.5201 7.50939 23.6156 9.07979 23.6436L9.11229 21.7318ZM1.4666 19.1309C1.8279 20.0195 2.35748 20.8269 3.0251 21.507C3.69271 22.1871 4.4853 22.7266 5.35759 23.0947L6.07402 21.3293C4.77204 20.7799 3.73886 19.7262 3.19954 18.3998L1.4666 19.1309ZM25.9253 13.1446C25.9253 14.6412 25.9253 15.7162 25.8678 16.5645C25.8115 17.4038 25.704 17.9515 25.5215 18.3998L27.2532 19.1309C27.547 18.41 27.6758 17.6305 27.7395 16.6944C27.802 15.7659 27.8008 14.6157 27.8008 13.1446H25.9253ZM19.64 23.6411C21.2104 23.6143 22.3557 23.5201 23.3622 23.0947L22.6445 21.3293C22.0006 21.6019 21.1779 21.7038 19.6087 21.7318L19.64 23.6423V23.6411ZM25.5215 18.3998C24.9821 19.7262 23.9477 20.7799 22.6457 21.3293L23.3622 23.0947C24.2345 22.7266 25.027 22.1871 25.6947 21.507C26.3623 20.8269 26.8919 20.0195 27.2532 19.1309L25.5215 18.3998ZM16.2354 1.99983C18.2996 1.99983 19.7825 1.99983 20.9391 2.11319C22.0818 2.224 22.8083 2.43543 23.3884 2.79716L24.3674 1.16811C23.4434 0.592402 22.3957 0.335117 21.1166 0.210295C19.8513 0.0880213 18.2634 0.089295 16.2354 0.089295V1.99983ZM27.8008 11.8709C27.8008 9.80499 27.8008 8.18868 27.6808 6.89843C27.5595 5.59545 27.3069 4.52682 26.7418 3.58684L25.1414 4.58414C25.4977 5.17513 25.7053 5.91515 25.814 7.08057C25.9241 8.25746 25.9253 9.76805 25.9253 11.8709H27.8008ZM23.3872 2.79716C24.1026 3.24332 24.7041 3.85568 25.1426 4.58414L26.7418 3.58684C26.1488 2.60098 25.3352 1.77213 24.3674 1.16811L23.3884 2.79843L23.3872 2.79716ZM12.4844 0.089295C10.4564 0.089295 8.86973 0.089295 7.60316 0.210295C6.32409 0.335117 5.27507 0.592402 4.35233 1.16811L5.33133 2.79843C5.91148 2.43543 6.63791 2.224 7.78196 2.11319C8.93725 2.0011 10.4201 1.99983 12.4844 1.99983V0.089295ZM2.79444 11.8709C2.79444 9.76805 2.79444 8.25746 2.90572 7.0793C3.01449 5.91515 3.22205 5.17513 3.57714 4.58414L1.97798 3.58812C1.41284 4.5281 1.16027 5.59545 1.03774 6.89843C0.918961 8.18995 0.918961 9.80499 0.918961 11.8709H2.79444ZM4.35233 1.16811C3.38456 1.77213 2.57092 2.60225 1.97798 3.58812L3.57839 4.58414C4.01617 3.85598 4.61684 3.24364 5.33133 2.79716L4.35233 1.16811ZM13.1296 24.0856C12.877 23.6487 12.6544 23.2628 12.4369 22.9596C12.2131 22.6272 11.9224 22.3472 11.5842 22.1381L10.6414 23.7901C10.7002 23.8258 10.7815 23.8894 10.9215 24.0856C11.0728 24.297 11.2441 24.59 11.5167 25.0587L13.1296 24.0856ZM9.07979 23.6411C9.62993 23.6513 9.97626 23.6589 10.2413 23.6882C10.4889 23.7162 10.5852 23.757 10.6414 23.7901L11.5842 22.1381C11.2341 21.9405 10.8466 21.8215 10.4476 21.7891C10.075 21.7471 9.62743 21.7407 9.11229 21.7318L9.07979 23.6436V23.6411ZM17.2031 25.0587C17.4757 24.5912 17.647 24.297 17.7983 24.0856C17.9383 23.8894 18.0196 23.8258 18.0783 23.7901L17.1356 22.1381C16.773 22.3546 16.5104 22.6412 16.2829 22.9596C16.0666 23.2628 15.8428 23.6474 15.5889 24.0856L17.2031 25.0587ZM19.6087 21.7318C19.0936 21.7407 18.6447 21.7471 18.2721 21.7891C17.8833 21.8337 17.5019 21.9216 17.1356 22.1381L18.0783 23.7901C18.1346 23.757 18.2309 23.7162 18.4784 23.6882C18.7435 23.6589 19.0911 23.65 19.6412 23.6411L19.6087 21.7305V21.7318Z" fill="white"/>
</svg>
