<svg width="36" height="35" viewBox="0 0 36 35" fill="none" xmlns="http://www.w3.org/2000/svg">
<path d="M26.2246 1.93665L26.8898 2.77092L27.5549 1.93538C27.9418 1.45138 28.4206 1.05192 28.9626 0.760932C29.5047 0.46994 30.0988 0.293405 30.7094 0.241901C31.32 0.190398 31.9346 0.264987 32.5162 0.461201C33.0978 0.657414 33.6346 0.971212 34.0943 1.3838C34.5541 1.79638 34.9273 2.29926 35.1918 2.8623C35.4562 3.42534 35.6063 4.03696 35.6331 4.66052C35.6599 5.28407 35.5629 5.90672 35.3479 6.49117C35.1329 7.07562 34.8042 7.60984 34.3817 8.06182L27.73 15.1473C27.6215 15.2629 27.4912 15.3549 27.3469 15.4177C27.2026 15.4805 27.0473 15.5129 26.8904 15.5129C26.7335 15.5129 26.5782 15.4805 26.4339 15.4177C26.2896 15.3549 26.1593 15.2629 26.0508 15.1473L19.4004 8.05545C18.9778 7.60381 18.6491 7.06988 18.434 6.48568C18.2189 5.90148 18.1218 5.27904 18.1486 4.6557C18.1754 4.03236 18.3255 3.42095 18.5899 2.85814C18.8543 2.29533 19.2276 1.79271 19.6873 1.38043C20.147 0.968145 20.6838 0.654692 21.2653 0.458866C21.8468 0.26304 22.4612 0.188874 23.0716 0.240816C23.682 0.292759 24.2757 0.46974 24.8173 0.761145C25.3589 1.05255 25.8371 1.45238 26.2234 1.93665H26.2246ZM16.1608 2.81549L15.9007 2.54675C15.5142 2.14583 15.0392 1.84498 14.5152 1.66934C13.9913 1.4937 13.4336 1.44837 12.889 1.53714C12.3443 1.62592 11.8284 1.84622 11.3844 2.17963C10.9404 2.51304 10.5812 2.94987 10.3368 3.45361C9.92536 3.23918 9.47593 3.11084 9.01501 3.07616C8.5541 3.04147 8.09103 3.10115 7.65311 3.25167C7.2152 3.40219 6.8113 3.64051 6.46523 3.95257C6.11916 4.26463 5.83793 4.64411 5.63812 5.06865C4.94878 4.73513 4.16677 4.65725 3.42707 4.84844C2.68737 5.03964 2.03641 5.48792 1.58656 6.11589C1.13671 6.74386 0.916199 7.51213 0.963091 8.28806C1.00998 9.06399 1.32134 9.7989 1.8434 10.3659L2.38604 10.9544C1.93678 11.2061 1.54971 11.5588 1.25421 11.9856C0.958704 12.4125 0.762535 12.9023 0.680587 13.4179C0.598638 13.9336 0.633063 14.4614 0.781249 14.9614C0.929435 15.4615 1.18749 15.9206 1.53583 16.3039L7.98622 23.3856C6.52709 23.7218 4.64037 24.5319 3.47507 26.4806C2.91493 27.4181 3.09247 28.4345 3.61635 29.1401C4.10898 29.805 4.90793 30.2227 5.75815 30.2609C9.7004 30.4342 14.4654 31.9014 18.4964 33.8782C21.3284 35.2653 24.9668 34.7341 26.9785 32.0237L29.3792 28.7886C29.9731 27.988 30.373 27.0558 30.5462 26.068C30.7194 25.0801 30.6609 24.0646 30.3757 23.1041L28.729 17.5597C27.9744 17.9908 27.097 18.1437 26.2446 17.9928L26.2534 18.0195L27.9826 23.8403C28.154 24.417 28.1892 25.027 28.0851 25.6202C27.981 26.2135 27.7406 26.7732 27.3836 27.2538L24.983 30.4877C23.8027 32.0772 21.5197 32.5319 19.5817 31.5818C15.3493 29.5082 10.2468 27.9084 5.86568 27.7161C5.80644 27.7133 5.74846 27.6977 5.69563 27.6703C6.38081 26.6297 7.47734 26.1113 8.55386 25.8667C9.20237 25.7231 9.8663 25.6649 10.5294 25.6935H10.5319C10.7832 25.7149 11.035 25.6583 11.2543 25.5312C11.4735 25.4042 11.6498 25.2125 11.7602 24.9815C11.8706 24.7505 11.9097 24.4908 11.8726 24.2367C11.8355 23.9825 11.7238 23.7458 11.5521 23.5575L3.37129 14.5704C3.22901 14.4135 3.14701 14.2096 3.14034 13.9962C3.13366 13.7827 3.20276 13.5739 3.33495 13.4082C3.46714 13.2424 3.65357 13.1307 3.86004 13.0936C4.06651 13.0565 4.27919 13.0965 4.45907 13.2062L9.72416 18.9277C9.95064 19.1748 10.2642 19.3201 10.5959 19.3317C10.9276 19.3433 11.2502 19.2201 11.4927 18.9894C11.7353 18.7587 11.878 18.4393 11.8893 18.1014C11.9007 17.7635 11.7799 17.4349 11.5534 17.1878L6.47958 11.6281C6.36855 11.5062 6.24905 11.3925 6.12199 11.2881L3.66762 8.62352C3.53417 8.47144 3.46367 8.27267 3.47087 8.06883C3.47807 7.86499 3.56242 7.67189 3.70625 7.52998C3.85007 7.38807 4.04223 7.30836 4.24246 7.30754C4.44269 7.30673 4.63546 7.38487 4.7804 7.52559L12.2523 15.1359C12.3685 15.2541 12.5064 15.3479 12.6581 15.4119C12.8099 15.4759 12.9725 15.5088 13.1367 15.5087C13.3009 15.5086 13.4636 15.4756 13.6153 15.4116C13.767 15.3475 13.9048 15.2536 14.0209 15.1352C14.137 15.0169 14.229 14.8764 14.2918 14.7219C14.3546 14.5673 14.3869 14.4016 14.3868 14.2343C14.3868 14.067 14.3544 13.9014 14.2915 13.7468C14.2286 13.5923 14.1364 13.4519 14.0203 13.3336L8.08124 7.28359C7.98542 7.19445 7.90833 7.08645 7.85462 6.96611C7.80091 6.84578 7.77171 6.7156 7.76877 6.58344C7.76583 6.45129 7.78921 6.31989 7.83751 6.1972C7.8858 6.0745 7.95801 5.96306 8.04977 5.86958C8.14153 5.77611 8.25093 5.70255 8.37137 5.65335C8.49182 5.60415 8.6208 5.58033 8.75053 5.58333C8.88026 5.58633 9.00805 5.61608 9.12618 5.67079C9.24431 5.7255 9.35033 5.80403 9.43784 5.90164L10.7932 7.28232C10.8569 7.35874 10.9245 7.43389 10.9957 7.50649L16.0033 12.5898L16.0245 12.6114L17.2523 13.8622C17.4869 14.101 17.8051 14.2351 18.1367 14.235C18.4684 14.2349 18.7865 14.1006 19.0209 13.8616C19.2553 13.6226 19.387 13.2985 19.3869 12.9606C19.3868 12.6227 19.2549 12.2988 19.0203 12.0599L12.6612 5.58195C12.5202 5.38294 12.4583 5.13703 12.4878 4.89347C12.5172 4.64992 12.636 4.42671 12.8202 4.26855C13.0044 4.11039 13.2404 4.02896 13.481 4.04058C13.7217 4.05219 13.9491 4.15599 14.1178 4.33118L16.1058 6.39456C15.8225 5.21642 15.8418 3.98379 16.162 2.81549H16.1608ZM17.1323 24.3981C18.5602 24.1077 19.743 24.1307 20.7345 24.4453C21.7072 24.7548 22.5912 25.3763 23.3914 26.4615C23.489 26.5979 23.6123 26.7131 23.754 26.8006C23.8957 26.888 24.0531 26.9458 24.2169 26.9708C24.3808 26.9957 24.5479 26.9872 24.7085 26.9458C24.8691 26.9044 25.02 26.8308 25.1525 26.7295C25.285 26.6281 25.3964 26.5009 25.4802 26.3554C25.564 26.2098 25.6185 26.0487 25.6407 25.8814C25.6629 25.7141 25.6522 25.5441 25.6092 25.381C25.5663 25.218 25.492 25.0653 25.3906 24.9318C24.3129 23.4696 23.0088 22.4991 21.4809 22.0138C19.9718 21.5336 18.3401 21.5553 16.6422 21.8992C16.4811 21.932 16.3279 21.9967 16.1914 22.0898C16.0549 22.1829 15.9378 22.3025 15.8466 22.4417C15.6626 22.7228 15.5957 23.0669 15.6607 23.3983C15.7257 23.7297 15.9172 24.0212 16.1932 24.2087C16.4692 24.3962 16.807 24.4644 17.1323 24.3981Z" fill="white"/>
</svg>
