<svg width="31" height="32" viewBox="0 0 31 32" fill="none" xmlns="http://www.w3.org/2000/svg">
<path d="M29.1231 12.729L17.4087 1.46437L17.3853 1.44198C16.8469 0.940095 16.1436 0.661743 15.4138 0.661743C14.6841 0.661743 13.9807 0.940095 13.4424 1.44198L13.4175 1.46437L1.706 12.729C1.40901 13.009 1.17191 13.3483 1.00955 13.7258C0.847183 14.1034 0.763048 14.511 0.762405 14.9232V28.7223C0.762405 29.514 1.07115 30.2733 1.62071 30.8332C2.17027 31.393 2.91564 31.7075 3.69284 31.7075H10.7259C11.5031 31.7075 12.2484 31.393 12.798 30.8332C13.3476 30.2733 13.6563 29.514 13.6563 28.7223V22.1548H17.1728V28.7223C17.1728 29.514 17.4816 30.2733 18.0311 30.8332C18.5807 31.393 19.3261 31.7075 20.1033 31.7075H27.1363C27.9135 31.7075 28.6589 31.393 29.2084 30.8332C29.758 30.2733 30.0667 29.514 30.0667 28.7223V14.9232C30.0661 14.511 29.9819 14.1034 29.8196 13.7258C29.6572 13.3483 29.4201 13.009 29.1231 12.729ZM26.5502 28.1253H20.6893V21.5578C20.6893 21.1658 20.6135 20.7776 20.4663 20.4154C20.319 20.0532 20.1032 19.7241 19.831 19.4469C19.5589 19.1697 19.2359 18.9498 18.8803 18.7998C18.5248 18.6498 18.1437 18.5726 17.7589 18.5726H13.0702C12.293 18.5726 11.5477 18.8871 10.9981 19.4469C10.4485 20.0068 10.1398 20.7661 10.1398 21.5578V28.1253H4.27892V15.1814L15.4146 4.47196L26.5502 15.1814V28.1253Z" fill="white"/>
</svg>
