<svg width="18" height="18" viewBox="0 0 18 18" fill="none" xmlns="http://www.w3.org/2000/svg">
<path d="M9.00002 17.3333C7.86113 17.3333 6.78474 17.1144 5.77085 16.6766C4.75697 16.2388 3.87141 15.6416 3.11419 14.885C2.35752 14.1283 1.7603 13.243 1.32252 12.2291C0.884744 11.2152 0.666133 10.1388 0.666688 8.99996C0.666688 7.84718 0.885577 6.76718 1.32335 5.75996C1.76113 4.75274 2.35835 3.87107 3.11502 3.11496C3.87169 2.35774 4.75669 1.76051 5.77002 1.32329C6.78335 0.886071 7.86002 0.667182 9.00002 0.666626C10.1528 0.666626 11.2328 0.885515 12.24 1.32329C13.2472 1.76107 14.1289 2.35829 14.885 3.11496C15.6422 3.87163 16.2395 4.75357 16.6767 5.76079C17.1139 6.76801 17.3328 7.84774 17.3334 8.99996V10.2083C17.3334 11.0277 17.0522 11.7258 16.49 12.3025C15.9278 12.8791 15.2367 13.1672 14.4167 13.1666C13.9167 13.1666 13.4514 13.0555 13.0209 12.8333C12.5903 12.6111 12.2361 12.3194 11.9584 11.9583C11.5834 12.3333 11.1422 12.6286 10.635 12.8441C10.1278 13.0597 9.5828 13.1672 9.00002 13.1666C7.84724 13.1666 6.86447 12.7602 6.05169 11.9475C5.23891 11.1347 4.8328 10.1522 4.83335 8.99996C4.83335 7.84718 5.23974 6.8644 6.05252 6.05163C6.8653 5.23885 7.8478 4.83274 9.00002 4.83329C10.1528 4.83329 11.1356 5.23968 11.9484 6.05246C12.7611 6.86524 13.1672 7.84774 13.1667 8.99996V10.2083C13.1667 10.6111 13.2917 10.9269 13.5417 11.1558C13.7917 11.3847 14.0834 11.4994 14.4167 11.5C14.75 11.5 15.0417 11.3852 15.2917 11.1558C15.5417 10.9263 15.6667 10.6105 15.6667 10.2083V8.99996C15.6667 7.18051 15.0103 5.6144 13.6975 4.30163C12.3847 2.98885 10.8189 2.33274 9.00002 2.33329C7.18058 2.33329 5.61447 2.98968 4.30169 4.30246C2.98891 5.61524 2.3328 7.18107 2.33335 8.99996C2.33335 10.8194 2.98974 12.3855 4.30252 13.6983C5.6153 15.0111 7.18113 15.6672 9.00002 15.6666H13.1667V17.3333H9.00002ZM9.00002 11.5C9.69447 11.5 10.2847 11.2569 10.7709 10.7708C11.257 10.2847 11.5 9.6944 11.5 8.99996C11.5 8.30551 11.257 7.71524 10.7709 7.22913C10.2847 6.74301 9.69447 6.49996 9.00002 6.49996C8.30558 6.49996 7.7153 6.74301 7.22919 7.22913C6.74308 7.71524 6.50002 8.30551 6.50002 8.99996C6.50002 9.6944 6.74308 10.2847 7.22919 10.7708C7.7153 11.2569 8.30558 11.5 9.00002 11.5Z" fill="#FBFBFB"/>
</svg>
